External Loads File
version=1
nRows=88
nColumns=13
Range=5.000000e-03-10 seconds
endheader
time 	forceRightX 	forceRightY 	forceRightZ 	pointRightX 	pointRightY 	pointRightZ 	forceLeftX 	forceLeftY 	forceLeftZ 	pointLeftX 	pointLeftY 	pointLeftZ 		
0.005000 4.113020 78.874022 -0.000000 0.318858 0.376681 -0.105235 30.456676 116.303136 -0.000000 0.027516 0.266516 -0.343385
0.010000 4.598837 79.293723 -0.000000 0.318840 0.376739 -0.105249 31.568008 116.494460 -0.000000 0.027514 0.266475 -0.343377
0.015000 5.003756 79.645424 -0.000000 0.318811 0.376805 -0.105246 32.566794 116.657472 -0.000000 0.027527 0.266423 -0.343381
0.020000 5.309031 79.896502 -0.000000 0.318799 0.376856 -0.105256 33.426043 116.755659 -0.000000 0.027528 0.266367 -0.343380
0.025000 5.263781 80.049640 -0.000000 0.318631 0.376962 -0.105171 33.763594 116.864073 -0.000000 0.027388 0.265442 -0.343520
0.030000 5.285159 80.079384 -0.000000 0.318648 0.377088 -0.105192 34.169263 116.797773 -0.000000 0.027384 0.265231 -0.343475
0.035000 5.246679 80.002592 -0.000000 0.318631 0.377145 -0.105193 34.455630 116.616249 -0.000000 0.027387 0.265133 -0.343450
0.040000 5.109133 79.829715 -0.000000 0.318621 0.377230 -0.105190 34.589566 116.349883 -0.000000 0.027386 0.265027 -0.343429
0.045000 4.898760 79.566808 -0.000000 0.318607 0.377313 -0.105190 34.642497 116.004074 -0.000000 0.027396 0.264953 -0.343438
0.050000 4.628975 79.223445 -0.000000 0.318597 0.377400 -0.105193 34.645007 115.597144 -0.000000 0.027416 0.264885 -0.343430
0.055000 4.333301 78.816855 -0.000000 0.318602 0.377489 -0.105192 34.620082 115.147403 -0.000000 0.027432 0.264810 -0.343407
0.060000 4.051937 78.375236 -0.000000 0.318611 0.377579 -0.105225 34.580674 114.672682 -0.000000 0.027458 0.264726 -0.343399
0.065000 3.824438 77.924125 -0.000000 0.318611 0.377658 -0.105244 34.555316 114.185574 -0.000000 0.027485 0.264651 -0.343400
0.070000 3.657655 77.474227 -0.000000 0.318627 0.377742 -0.105245 34.556282 113.706383 -0.000000 0.027513 0.264566 -0.343395
0.075000 3.556392 77.027852 -0.000000 0.318626 0.377828 -0.105265 34.592750 113.253211 -0.000000 0.027554 0.264483 -0.343332
0.080000 3.537731 76.595513 -0.000000 0.318603 0.377909 -0.105224 34.658034 112.835697 -0.000000 0.027571 0.264412 -0.343344
0.085000 3.607054 76.198358 -0.000000 0.318606 0.378002 -0.105251 34.717254 112.462811 -0.000000 0.027601 0.264328 -0.343340
0.090000 3.762803 75.854349 -0.000000 0.318607 0.378091 -0.105257 34.760972 112.136726 -0.000000 0.027636 0.264238 -0.343327
0.095000 3.973248 75.569405 -0.000000 0.318588 0.378203 -0.105254 34.773056 111.857158 -0.000000 0.027660 0.264138 -0.343314
0.100000 4.217760 75.335100 -0.000000 0.318563 0.378289 -0.105260 34.766957 111.602454 -0.000000 0.027692 0.264044 -0.343314
0.105000 4.454509 75.138453 -0.000000 0.318540 0.378379 -0.105266 34.727323 111.360396 -0.000000 0.027729 0.263940 -0.343329
0.110000 4.670838 74.970538 -0.000000 0.318509 0.378476 -0.105261 34.674640 111.122460 -0.000000 0.027755 0.263853 -0.343349
0.115000 4.841976 74.829595 -0.000000 0.318495 0.378611 -0.105247 34.585171 110.900052 -0.000000 0.027798 0.263721 -0.343353
0.120000 5.014138 74.708253 -0.000000 0.318468 0.378689 -0.105243 34.505329 110.673292 -0.000000 0.027814 0.263618 -0.343369
0.125000 5.150102 74.599874 -0.000000 0.318443 0.378805 -0.105245 34.348705 110.457694 -0.000000 0.027833 0.263459 -0.343374
0.130000 5.268108 74.487623 -0.000000 0.318415 0.378925 -0.105248 34.150113 110.236497 -0.000000 0.027848 0.263324 -0.343377
0.135000 5.351617 74.353322 -0.000000 0.318411 0.379025 -0.105268 33.942095 110.001626 -0.000000 0.027870 0.263229 -0.343386
0.140000 5.343888 74.189099 -0.000000 0.318403 0.379177 -0.105268 33.704746 109.771138 -0.000000 0.027904 0.263123 -0.343397
0.145000 5.278405 73.995769 -0.000000 0.318413 0.379277 -0.105276 33.515057 109.544427 -0.000000 0.027906 0.263038 -0.343398
0.150000 5.155347 73.790620 -0.000000 0.318410 0.379379 -0.105290 33.352479 109.350569 -0.000000 0.027905 0.262963 -0.343411
0.155000 4.993859 73.594113 -0.000000 0.318402 0.379505 -0.105265 33.191769 109.206964 -0.000000 0.027920 0.262863 -0.343390
0.160000 4.856560 73.415957 -0.000000 0.318425 0.379618 -0.105253 33.064952 109.101977 -0.000000 0.027935 0.262809 -0.343384
0.165000 4.749255 73.260217 -0.000000 0.318420 0.379722 -0.105257 32.933469 109.044415 -0.000000 0.027939 0.262714 -0.343391
0.170000 4.722756 73.125342 -0.000000 0.318438 0.379816 -0.105253 32.852250 109.020165 -0.000000 0.027936 0.262663 -0.343383
0.175000 4.776894 73.012494 -0.000000 0.318457 0.379887 -0.105245 32.834360 109.030267 -0.000000 0.027942 0.262590 -0.343395
0.180000 4.903750 72.922408 -0.000000 0.318474 0.379991 -0.105241 32.912057 109.069283 -0.000000 0.027944 0.262509 -0.343380
0.185000 5.112872 72.857970 -0.000000 0.318496 0.380072 -0.105252 33.149732 109.121885 -0.000000 0.027950 0.262452 -0.343409
0.190000 5.389788 72.825922 -0.000000 0.318528 0.380154 -0.105273 33.545079 109.187610 -0.000000 0.027942 0.262404 -0.343405
0.195000 5.706839 72.823057 -0.000000 0.318566 0.380252 -0.105297 34.040408 109.267458 -0.000000 0.027934 0.262333 -0.343396
0.200000 6.034164 72.827123 -0.000000 0.318574 0.380334 -0.105261 34.575274 109.346639 -0.000000 0.027947 0.262245 -0.343405
0.205000 6.331609 72.808383 -0.000000 0.318591 0.380435 -0.105281 35.093969 109.402889 -0.000000 0.027945 0.262168 -0.343388
0.210000 6.548955 72.747162 -0.000000 0.318612 0.380539 -0.105281 35.524142 109.422006 -0.000000 0.027957 0.262046 -0.343370
0.215000 6.698431 72.635831 -0.000000 0.318620 0.380630 -0.105262 35.862553 109.375864 -0.000000 0.027985 0.261976 -0.343355
0.220000 6.766246 72.481807 -0.000000 0.318635 0.380745 -0.105284 36.060098 109.271686 -0.000000 0.028000 0.261862 -0.343331
0.225000 6.775817 72.287419 -0.000000 0.318643 0.380842 -0.105281 36.162659 109.112928 -0.000000 0.028020 0.261730 -0.343332
0.230000 6.715513 72.050157 -0.000000 0.318639 0.380980 -0.105279 36.203549 108.920244 -0.000000 0.028060 0.261608 -0.343325
0.235000 6.588438 71.766867 -0.000000 0.318650 0.381113 -0.105322 36.217943 108.703862 -0.000000 0.028098 0.261459 -0.343320
0.240000 6.409927 71.444466 -0.000000 0.318644 0.381273 -0.105339 36.196692 108.474463 -0.000000 0.028137 0.261327 -0.343297
0.245000 6.201608 71.103480 -0.000000 0.318597 0.381444 -0.105320 36.104252 108.251609 -0.000000 0.028184 0.261152 -0.343324
0.250000 6.026057 70.770109 -0.000000 0.318571 0.381614 -0.105325 35.974220 108.035977 -0.000000 0.028225 0.261003 -0.343335
0.255000 5.901176 70.473268 -0.000000 0.318523 0.381758 -0.105322 35.788072 107.837644 -0.000000 0.028290 0.260851 -0.343325
0.260000 5.824227 70.233229 -0.000000 0.318472 0.381940 -0.105337 35.513107 107.660041 -0.000000 0.028345 0.260697 -0.343367
0.265000 5.812556 70.059803 -0.000000 0.318429 0.382077 -0.105316 35.172619 107.487163 -0.000000 0.028388 0.260572 -0.343404
0.270000 5.836788 69.968959 -0.000000 0.318371 0.382216 -0.105297 34.738831 107.329154 -0.000000 0.028447 0.260431 -0.343422
0.275000 5.923160 69.977992 -0.000000 0.318324 0.382343 -0.105272 34.275288 107.181064 -0.000000 0.028511 0.260313 -0.343417
0.280000 6.080056 70.096478 -0.000000 0.318283 0.382471 -0.105263 33.821084 107.052714 -0.000000 0.028559 0.260189 -0.343413
0.285000 6.275602 70.308386 -0.000000 0.318245 0.382646 -0.105277 33.375491 106.956211 -0.000000 0.028599 0.260006 -0.343403
0.290000 6.505233 70.564597 -0.000000 0.318212 0.382785 -0.105261 33.013007 106.867826 -0.000000 0.028656 0.259877 -0.343393
0.295000 6.695297 70.811493 -0.000000 0.318164 0.382911 -0.105248 32.712643 106.791618 -0.000000 0.028702 0.259726 -0.343396
0.300000 6.816682 71.003754 -0.000000 0.318130 0.383053 -0.105228 32.494945 106.722839 -0.000000 0.028745 0.259582 -0.343384
0.305000 6.853807 71.117389 -0.000000 0.318088 0.383221 -0.105239 32.357484 106.670048 -0.000000 0.028784 0.259405 -0.343356
0.310000 6.844601 71.146398 -0.000000 0.318051 0.383374 -0.105246 32.335092 106.635621 -0.000000 0.028820 0.259225 -0.343370
0.315000 6.819974 71.103413 -0.000000 0.318016 0.383523 -0.105250 32.427840 106.631707 -0.000000 0.028858 0.259051 -0.343370
0.320000 6.800540 71.006799 -0.000000 0.317994 0.383686 -0.105273 32.626258 106.664149 -0.000000 0.028897 0.258883 -0.343379
0.325000 6.809842 70.865141 -0.000000 0.317969 0.383808 -0.105292 32.945165 106.715656 -0.000000 0.028924 0.258764 -0.343390
0.330000 6.805236 70.679305 -0.000000 0.317955 0.383969 -0.105289 33.314927 106.779877 -0.000000 0.028957 0.258668 -0.343406
0.335000 6.761363 70.441235 -0.000000 0.317928 0.384109 -0.105291 33.696506 106.836047 -0.000000 0.028983 0.258572 -0.343418
0.340000 6.653184 70.151777 -0.000000 0.317910 0.384217 -0.105270 34.034223 106.873571 -0.000000 0.029005 0.258463 -0.343384
0.345000 6.465560 69.832862 -0.000000 0.317887 0.384356 -0.105263 34.255894 106.898667 -0.000000 0.029040 0.258348 -0.343419
0.350000 6.235230 69.518263 -0.000000 0.317877 0.384487 -0.105270 34.361031 106.910735 -0.000000 0.029061 0.258231 -0.343412
0.355000 5.974796 69.244677 -0.000000 0.317847 0.384633 -0.105257 34.335534 106.927679 -0.000000 0.029099 0.258105 -0.343402
0.360000 5.713409 69.037380 -0.000000 0.317844 0.384770 -0.105272 34.219596 106.957489 -0.000000 0.029133 0.257966 -0.343437
0.365000 5.459361 68.910726 -0.000000 0.317808 0.384904 -0.105274 34.035482 107.008914 -0.000000 0.029183 0.257845 -0.343427
0.370000 5.213229 68.867089 -0.000000 0.317776 0.385058 -0.105255 33.782907 107.083725 -0.000000 0.029224 0.257686 -0.343426
0.375000 5.002652 68.895847 -0.000000 0.317736 0.385213 -0.105257 33.491978 107.177951 -0.000000 0.029278 0.257522 -0.343455
0.380000 4.856889 68.979443 -0.000000 0.317683 0.385379 -0.105249 33.213164 107.306061 -0.000000 0.029314 0.257389 -0.343438
0.385000 4.770422 69.101155 -0.000000 0.317620 0.385558 -0.105242 32.965838 107.495940 -0.000000 0.029352 0.257220 -0.343417
0.390000 4.744103 69.246796 -0.000000 0.317546 0.385735 -0.105232 32.769813 107.740073 -0.000000 0.029380 0.257012 -0.343419
0.395000 4.780065 69.405935 -0.000000 0.317480 0.385901 -0.105237 32.625615 107.998698 -0.000000 0.029434 0.256812 -0.343398
0.400000 4.887490 69.569773 -0.000000 0.317423 0.386063 -0.105233 32.540835 108.223816 -0.000000 0.029475 0.256676 -0.343341
0.405000 5.055296 69.732250 -0.000000 0.317365 0.386204 -0.105244 32.495663 108.395534 -0.000000 0.029523 0.256541 -0.343317
0.410000 5.274743 69.882269 -0.000000 0.317320 0.386350 -0.105235 32.485240 108.508988 -0.000000 0.029580 0.256405 -0.343339
0.415000 5.518157 70.001039 -0.000000 0.317291 0.386494 -0.105243 32.501804 108.570352 -0.000000 0.029641 0.256245 -0.343358
0.420000 5.762857 70.075206 -0.000000 0.317244 0.386630 -0.105223 32.563965 108.585909 -0.000000 0.029678 0.256137 -0.343395
0.425000 5.969955 70.113325 -0.000000 0.317214 0.386743 -0.105203 32.644818 108.574666 -0.000000 0.029724 0.256016 -0.343411
0.430000 6.134998 70.131398 -0.000000 0.317222 0.386855 -0.105265 32.731501 108.536088 -0.000000 0.029779 0.255910 -0.343423
0.435000 6.246797 70.137878 -0.000000 0.317178 0.386957 -0.105250 32.793563 108.466534 -0.000000 0.029809 0.255792 -0.343443
0.440000 6.316094 70.126671 -0.000000 0.317167 0.387046 -0.105236 32.860693 108.352446 -0.000000 0.029854 0.255712 -0.343441
